# xmcd
# 
# Track frame offsets:
#     150
#     15892
#     31642
#     52478
#     65074
#     78747
#     92600
#     105562
#     121141
#     140172
#     154546
#     169681
#     188100
#     199775
#     213782
#     228014
# 
# Disc length: 3233
# 
# Revision: 1
# Processed by: cddbd v1.5.2PL0 Copyright (c) Steve Scherf et al.
# Submitted via: fre:ac v1.0.17
# 
DISCID=cc0c9f10
DTITLE=蔡情 - 精挑細選
DYEAR=0
DGENRE=Pop-Folk
TTITLE0=綠島小夜曲
TTITLE1=我有一段情
TTITLE2=初戀女
TTITLE3=今宵多珍重
TTITLE4=魂縈舊夢
TTITLE5=明月千里寄相思
TTITLE6=空中歌聲
TTITLE7=紅薔薇
TTITLE8=意難忘
TTITLE9=月光小夜曲
TTITLE10=問白雲
TTITLE11=飄零的落花
TTITLE12=夢裡相思
TTITLE13=昨夜你對我一笑
TTITLE14=送別
TTITLE15=庭院深深
EXTD=
EXTT0=
EXTT1=
EXTT2=
EXTT3=
EXTT4=
EXTT5=
EXTT6=
EXTT7=
EXTT8=
EXTT9=
EXTT10=
EXTT11=
EXTT12=
EXTT13=
EXTT14=
EXTT15=
PLAYORDER=
